<svg xmlns="http://www.w3.org/2000/svg" width="22" height="22" viewBox="0 0 22 22" fill="none">
  <path fill-rule="evenodd" clip-rule="evenodd" d="M12.4734 4.26511C12.4734 2.68979 11.1952 1.41162 9.62131 1.41162H3.91433C2.34043 1.41162 1.06226 2.68979 1.06226 4.26511V17.7364C1.06226 19.3103 2.34043 20.5885 3.91433 20.5885H9.62131C11.1952 20.5885 12.4734 19.3103 12.4734 17.7364V4.26511Z" stroke="#1A61FF" stroke-width="2.0047" stroke-miterlimit="1.5" stroke-linecap="round" stroke-linejoin="round"/>
  <path d="M5.3808 4.0376H8.15467" stroke="#1A61FF" stroke-width="2.0047" stroke-miterlimit="1.5" stroke-linecap="round" stroke-linejoin="round"/>
  <path d="M19.1976 17.2894C20.3209 15.4566 20.9388 13.2992 20.9388 11.0004C20.9388 8.69899 20.3209 6.54157 19.1976 4.71143" stroke="#1A61FF" stroke-width="1.98986" stroke-miterlimit="1.5" stroke-linecap="round" stroke-linejoin="round"/>
  <path d="M15.8694 14.9111C16.5679 13.7714 16.9521 12.4299 16.9521 11.0005C16.9521 9.56939 16.5679 8.22786 15.8694 7.08984" stroke="#1A61FF" stroke-width="2.00252" stroke-miterlimit="1.5" stroke-linecap="round" stroke-linejoin="round"/>
</svg>