<svg xmlns="http://www.w3.org/2000/svg" width="38" height="38" viewBox="0 0 38 38" fill="none">
<path d="M29.0938 24.3438C28.3892 24.3438 27.7004 24.5527 27.1145 24.9441C26.5287 25.3356 26.0721 25.892 25.8024 26.5429C25.5328 27.1939 25.4622 27.9102 25.5997 28.6013C25.7372 29.2923 26.0765 29.9271 26.5747 30.4253C27.0729 30.9235 27.7077 31.2628 28.3987 31.4003C29.0898 31.5378 29.8061 31.4672 30.4571 31.1976C31.108 30.9279 31.6644 30.4713 32.0559 29.8855C32.4473 29.2996 32.6562 28.6108 32.6562 27.9062C32.6555 26.9616 32.2799 26.056 31.612 25.388C30.944 24.7201 30.0384 24.3445 29.0938 24.3438ZM29.0938 29.0938C28.8589 29.0938 28.6293 29.0241 28.434 28.8936C28.2387 28.7631 28.0865 28.5777 27.9966 28.3607C27.9068 28.1437 27.8832 27.9049 27.9291 27.6746C27.9749 27.4442 28.088 27.2326 28.2541 27.0666C28.4201 26.9005 28.6317 26.7874 28.8621 26.7416C29.0924 26.6957 29.3312 26.7193 29.5482 26.8091C29.7652 26.899 29.9506 27.0512 30.0811 27.2465C30.2116 27.4418 30.2812 27.6714 30.2812 27.9062C30.2803 28.2209 30.1549 28.5224 29.9324 28.7449C29.7099 28.9674 29.4084 29.0928 29.0938 29.0938ZM8.3125 24.3438C7.6079 24.3438 6.91913 24.5527 6.33328 24.9441C5.74743 25.3356 5.29082 25.892 5.02118 26.5429C4.75154 27.1939 4.68099 27.9102 4.81845 28.6013C4.95591 29.2923 5.29521 29.9271 5.79343 30.4253C6.29166 30.9235 6.92643 31.2628 7.61749 31.4003C8.30855 31.5378 9.02485 31.4672 9.67581 31.1976C10.3268 30.9279 10.8832 30.4713 11.2746 29.8855C11.6661 29.2996 11.875 28.6108 11.875 27.9062C11.8742 26.9616 11.4987 26.056 10.8307 25.388C10.1628 24.7201 9.2571 24.3445 8.3125 24.3438ZM8.3125 29.0938C8.07763 29.0938 7.84804 29.0241 7.65276 28.8936C7.45748 28.7631 7.30527 28.5777 7.21539 28.3607C7.12551 28.1437 7.102 27.9049 7.14782 27.6746C7.19364 27.4442 7.30674 27.2326 7.47281 27.0666C7.63889 26.9005 7.85048 26.7874 8.08083 26.7416C8.31118 26.6957 8.54995 26.7193 8.76694 26.8091C8.98392 26.899 9.16939 27.0512 9.29987 27.2465C9.43035 27.4418 9.5 27.6714 9.5 27.9062C9.49908 28.2209 9.37367 28.5224 9.15117 28.7449C8.92867 28.9674 8.62716 29.0928 8.3125 29.0938ZM32.6562 9.5C32.6562 8.71264 32.3435 7.95753 31.7867 7.40078C31.23 6.84403 30.4749 6.53125 29.6875 6.53125H4.15625C3.52636 6.53125 2.92227 6.78147 2.47687 7.22687C2.03147 7.67227 1.78125 8.27636 1.78125 8.90625V26.7188C1.78217 27.0334 1.90758 27.3349 2.13008 27.5574C2.35258 27.7799 2.65409 27.9053 2.96875 27.9062H3.5625C3.5625 26.6465 4.06294 25.4383 4.95374 24.5475C5.84454 23.6567 7.05272 23.1562 8.3125 23.1562C9.57228 23.1562 10.7805 23.6567 11.6713 24.5475C12.5621 25.4383 13.0625 26.6465 13.0625 27.9062H21.9688V10.6875C21.9688 10.3726 22.0939 10.0705 22.3166 9.84781C22.5393 9.62511 22.8413 9.5 23.1562 9.5H32.6562ZM11.2812 18.4062H4.75C4.59267 18.4058 4.44191 18.3431 4.33066 18.2318C4.21941 18.1206 4.1567 17.9698 4.15625 17.8125V13.0625C4.1567 12.9052 4.21941 12.7544 4.33066 12.6432C4.44191 12.5319 4.59267 12.4692 4.75 12.4688H11.2812V18.4062ZM19.5938 17.8125C19.5933 17.9698 19.5306 18.1206 19.4193 18.2318C19.3081 18.3431 19.1573 18.4058 19 18.4062H12.4688V12.4688H19C19.1573 12.4692 19.3081 12.5319 19.4193 12.6432C19.5306 12.7544 19.5933 12.9052 19.5938 13.0625V17.8125ZM34.58 19.3681L32.6562 18.4062L30.6993 11.5491C30.6285 11.3009 30.4787 11.0825 30.2726 10.9271C30.0666 10.7716 29.8155 10.6875 29.5574 10.6875H23.1562V27.9062H24.3438C24.3438 26.6465 24.8442 25.4383 25.735 24.5475C26.6258 23.6567 27.834 23.1562 29.0938 23.1562C30.3535 23.1562 31.5617 23.6567 32.4525 24.5475C33.3433 25.4383 33.8438 26.6465 33.8438 27.9062H35.0312C35.3459 27.9053 35.6474 27.7799 35.8699 27.5574C36.0924 27.3349 36.2178 27.0334 36.2188 26.7188V22.0222C36.2189 21.4713 36.0658 20.9312 35.7763 20.4624C35.4869 19.9937 35.0726 19.6147 34.58 19.3681ZM27.9062 21.9688H25.5312C25.3738 21.9688 25.2228 21.9062 25.1114 21.7948C25.0001 21.6835 24.9375 21.5325 24.9375 21.375C24.9375 21.2175 25.0001 21.0665 25.1114 20.9552C25.2228 20.8438 25.3738 20.7812 25.5312 20.7812H27.9062C28.0637 20.7812 28.2147 20.8438 28.3261 20.9552C28.4374 21.0665 28.5 21.2175 28.5 21.375C28.5 21.5325 28.4374 21.6835 28.3261 21.7948C28.2147 21.9062 28.0637 21.9688 27.9062 21.9688ZM25.5312 18.4062C25.3739 18.4058 25.2232 18.3431 25.1119 18.2318C25.0007 18.1206 24.938 17.9698 24.9375 17.8125V13.0625C24.938 12.9052 25.0007 12.7544 25.1119 12.6432C25.2232 12.5319 25.3739 12.4692 25.5312 12.4688H29.7231L31.4212 18.4062H25.5312Z" fill="white"/>
</svg>