<svg width="190" height="40" viewBox="0 0 190 40" fill="none" xmlns="http://www.w3.org/2000/svg">
<g id="iveco_logo_black 1" clip-path="url(#clip0_4636_12260)">
<path id="Vector" d="M160.194 33.5615C154.414 33.5615 149.712 29.7453 149.712 25.0546V12.9513C149.712 8.2606 154.414 4.44446 160.194 4.44446H179.517C185.297 4.44446 190 8.2606 190 12.9513V25.0546C190 29.7453 185.297 33.5615 179.517 33.5615H160.194ZM158.398 11.4425C158.279 11.4425 158.182 11.5379 158.182 11.655V26.3333C158.182 26.4507 158.279 26.546 158.398 26.546H181.181C181.299 26.546 181.397 26.4507 181.397 26.3333V11.655C181.397 11.5379 181.299 11.4425 181.181 11.4425H158.398Z" fill="white"/>
<path id="Vector_2" d="M98.9428 33.5617H74.8659C69.0857 33.5617 64.3833 29.7454 64.3833 25.0547V12.9473C64.3833 8.2565 69.0857 4.44036 74.8659 4.44506H98.8233L98.9976 4.4447C99.3642 4.4447 99.6615 4.73676 99.6615 5.09702L99.6617 5.12256V10.7917C99.6617 11.152 99.3642 11.4441 98.9976 11.4441L98.9419 11.4438L73.1041 11.4441C72.9652 11.4441 72.8522 11.5552 72.8522 11.6917V26.2985C72.8522 26.435 72.9652 26.5461 73.1041 26.5461L98.9188 26.5463L98.9976 26.5465C99.3642 26.5465 99.6615 26.8385 99.6615 27.1989L99.6618 27.211L99.6587 32.9041L99.6595 32.9094C99.6595 33.2698 99.3642 33.5618 98.9976 33.5618L98.9428 33.5617Z" fill="white"/>
<path id="Vector_3" d="M142.04 33.5617H117.963C112.183 33.5617 107.481 29.7454 107.481 25.0547V12.9473C107.481 8.2565 112.183 4.44036 117.963 4.44506H141.921L142.095 4.4447C142.462 4.4447 142.759 4.73676 142.759 5.09702V5.12256V10.7917C142.759 11.152 142.462 11.4441 142.095 11.4441L142.04 11.4438L116.202 11.4441C116.063 11.4441 115.95 11.5552 115.95 11.6917V26.2985C115.95 26.435 116.063 26.5461 116.202 26.5461L142.016 26.5463L142.095 26.5465C142.462 26.5465 142.759 26.8385 142.759 27.1989V27.211L142.756 32.9041L142.757 32.9094C142.757 33.2698 142.462 33.5618 142.095 33.5618L142.04 33.5617Z" fill="white"/>
<path id="Vector_4" d="M99.067 22.2613H77.5288C77.3137 22.2613 77.1377 22.0884 77.1377 21.8769V16.188C77.1377 15.9766 77.3137 15.8037 77.5288 15.8037H99.067C99.2822 15.8037 99.4582 15.9766 99.4582 16.188V21.8769C99.4582 22.0884 99.2822 22.2613 99.067 22.2613Z" fill="#1A61FF"/>
<path id="Vector_5" d="M37.0882 34.6545C33.7692 34.6545 30.7512 33.1716 29.2118 30.7844L29.1227 30.6379L14.1215 5.30881C14.0218 5.13407 14.0238 4.9313 14.1246 4.76239C14.2413 4.56662 14.471 4.44507 14.7239 4.44507H22.6394C22.8976 4.44507 23.1292 4.57012 23.244 4.77147L36.7934 27.556C36.8218 27.5889 36.9066 27.6615 37.1008 27.6655C37.3228 27.6639 37.385 27.5637 37.415 27.5156L52.1228 4.74941C52.2382 4.56326 52.4658 4.44507 52.7142 4.44507H60.7534C61.0112 4.44507 61.2429 4.57012 61.358 4.77147C61.4577 4.94543 61.4536 5.15158 61.3474 5.32295L45.0319 30.6837C43.5288 33.1097 40.5122 34.6325 37.1616 34.6543L37.0882 34.6545Z" fill="white"/>
<path id="Vector_6" d="M7.87892 33.562H0.663969C0.298789 33.562 0 33.2686 0 32.9098V5.09714C0 4.73836 0.298789 4.44482 0.663969 4.44482H7.87892C8.2441 4.44482 8.54289 4.73836 8.54289 5.09714V32.9098C8.54289 33.2686 8.2441 33.562 7.87892 33.562Z" fill="white"/>
</g>
<defs>
<clipPath id="clip0_4636_12260">
<rect width="190" height="40" fill="white"/>
</clipPath>
</defs>
</svg>
