<svg xmlns="http://www.w3.org/2000/svg" width="17" height="18" viewBox="0 0 17 18" fill="none">
  <path fill-rule="evenodd" clip-rule="evenodd" d="M14.5119 2.0318C15.4946 2.54586 16.4087 2.94679 16.8747 4.08469C17.3317 5.20264 16.3907 9.90232 16.4013 13.0407C16.4013 13.1904 16.4013 13.3402 16.3981 13.4899C16.4406 14.6128 16.0032 16.8038 15.0695 16.2906C14.7662 16.1242 14.3238 15.1868 13.9723 14.1262C13.4016 12.406 13.8734 8.16219 13.4 8.07152C12.6593 8.97153 10.6758 10.5703 9.92199 11.0643C8.63267 11.9086 8.22142 10.7424 7.9925 9.98384C7.71452 9.05721 6.64431 6.996 6.4301 6.82715C6.26659 6.69905 6.25351 6.88121 6.22244 6.99101C6.14477 7.25968 5.73516 10.1203 5.29285 11.6824C4.81865 13.3585 3.69203 16.1217 3.16714 16.773C2.64389 17.4235 0.467486 17.9791 0.0300801 17.9991C-0.254438 18.0673 1.56223 14.2942 1.99227 12.6997C2.60464 11.061 3.53996 7.27965 3.6585 4.74764C3.75825 3.07904 3.61354 1.52025 3.5931 1.06858C3.5931 0.464688 4.20138 0.132799 4.54313 0.0620958C4.93475 -0.0194209 5.79239 -0.179127 6.66965 0.81155C7.18718 1.39548 7.98433 3.33607 8.20425 3.81685C8.47978 4.41908 9.63584 7.13491 9.80998 7.77207C10.3905 7.34869 11.2457 6.50274 12.1147 5.54451C13.0476 4.51473 14.0876 2.78958 14.202 1.93448C14.3116 1.89622 14.413 1.97691 14.5119 2.0318Z" fill="white"/>
</svg>