<svg width="16" height="17" viewBox="0 0 16 17" fill="none" xmlns="http://www.w3.org/2000/svg">
<path id="Vector" d="M5.09729 2.5H3.26316C2.56554 2.5 2 3.06554 2 3.76316C2 9.69295 6.80705 14.5 12.7368 14.5C13.4345 14.5 14 13.9345 14 13.2368V11.4027C14 10.8575 13.6681 10.3672 13.1619 10.1647L11.4047 9.4619C10.95 9.28001 10.4322 9.36205 10.056 9.67557L9.60207 10.0538C9.0723 10.4953 8.2933 10.46 7.80568 9.97235L6.52765 8.69432C6.04003 8.2067 6.00469 7.4277 6.44617 6.89793L6.82443 6.44402C7.13795 6.06779 7.21999 5.54997 7.0381 5.09525L6.33526 3.33815C6.13277 2.83193 5.6425 2.5 5.09729 2.5Z" stroke="#1A61FF" stroke-linecap="round" stroke-linejoin="round"/>
</svg>
