<svg width="24" height="24" viewBox="0 0 24 24" fill="none" xmlns="http://www.w3.org/2000/svg">
<g clip-path="url(#clip0_4880_319)">
<path d="M13.5 0.75C7.71 0.75 3 5.124 3.009 10.614C3.0915 11.157 3.144 12.75 2.409 13.6035C2.0355 14.0385 1.4925 14.25 0.75 14.25C0.336 14.25 0 14.586 0 15C0 17.2665 1.8795 18.816 5.5905 19.6035C5.643 19.614 5.694 19.62 5.7465 19.62C6.093 19.62 6.4035 19.3785 6.4785 19.026C6.564 18.621 6.306 18.2235 5.901 18.1365C3.4515 17.616 2.0145 16.788 1.6155 15.672C2.406 15.5235 3.0555 15.1575 3.552 14.577C4.8825 13.02 4.509 10.5 4.5 10.5C4.5 5.9505 8.5365 2.25 13.5 2.25C18.4635 2.25 22.5 5.9505 22.5 10.5C22.5 13.599 20.6235 16.4145 17.604 17.847C17.229 18.024 17.07 18.4725 17.247 18.846C17.4255 19.2225 17.877 19.374 18.246 19.203C21.795 17.52 24 14.1855 24 10.5C24 5.124 19.2885 0.75 13.5 0.75Z" fill="white"/>
<path d="M15.1455 19.3784C15.1035 18.9659 14.703 18.6644 14.3235 18.7094C14.049 18.7364 13.7745 18.7499 13.5 18.7499C11.9655 18.7499 10.7355 18.7079 9.63 18.6179C9.2235 18.5954 8.856 18.8924 8.8215 19.3034C8.7885 19.7159 9.096 20.0789 9.5085 20.1119C10.6545 20.2064 11.9235 20.2499 13.5 20.2499C13.827 20.2499 14.1525 20.2334 14.4765 20.2004C14.889 20.1584 15.1875 19.7894 15.1455 19.3784Z" fill="white"/>
<path d="M16.5 17.25C14.8455 17.25 13.5 18.5955 13.5 20.25C13.5 21.9045 14.8455 23.25 16.5 23.25C18.1545 23.25 19.5 21.9045 19.5 20.25C19.5 18.5955 18.1545 17.25 16.5 17.25ZM16.5 21.75C15.672 21.75 15 21.078 15 20.25C15 19.422 15.672 18.75 16.5 18.75C17.328 18.75 18 19.422 18 20.25C18 21.078 17.328 21.75 16.5 21.75Z" fill="white"/>
<path d="M7.5 17.25C5.8455 17.25 4.5 18.5955 4.5 20.25C4.5 21.9045 5.8455 23.25 7.5 23.25C9.1545 23.25 10.5 21.9045 10.5 20.25C10.5 18.5955 9.1545 17.25 7.5 17.25ZM7.5 21.75C6.6735 21.75 6 21.078 6 20.25C6 19.422 6.6735 18.75 7.5 18.75C8.3265 18.75 9 19.422 9 20.25C9 21.078 8.3265 21.75 7.5 21.75Z" fill="white"/>
<path d="M10.53 7.5H10.515C10.101 7.5 9.77249 7.836 9.77249 8.25C9.77249 8.664 10.116 9 10.53 9C10.944 9 11.28 8.664 11.28 8.25C11.28 7.836 10.944 7.5 10.53 7.5Z" fill="white"/>
<path d="M16.53 7.5H16.515C16.101 7.5 15.7725 7.836 15.7725 8.25C15.7725 8.664 16.1175 9 16.53 9C16.944 9 17.28 8.664 17.28 8.25C17.28 7.836 16.944 7.5 16.53 7.5Z" fill="white"/>
<path d="M17.415 11.2681C17.0085 11.1811 16.611 11.4316 16.518 11.8366C16.1985 13.2571 14.958 14.2501 13.5 14.2501C12.042 14.2501 10.8015 13.2571 10.482 11.8366C10.3905 11.4316 9.98999 11.1766 9.58499 11.2696C9.18149 11.3596 8.92799 11.7616 9.01799 12.1636C9.49349 14.2771 11.337 15.7501 13.5 15.7501C15.6645 15.7501 17.508 14.2756 17.9835 12.1651C18.0735 11.7601 17.82 11.3596 17.415 11.2681Z" fill="white"/>
<g clip-path="url(#clip1_4880_319)">
<path d="M13.4998 19.5005C18.8848 19.5005 23.2498 15.4715 23.2498 10.5005C23.2498 5.52949 18.8848 1.50049 13.4998 1.50049C8.11485 1.50049 3.74985 5.52949 3.74985 10.5005C3.74985 10.5005 4.45335 15.0005 0.749847 15.0005C0.749847 18.7505 7.49985 19.5005 13.4998 19.5005Z" fill="white"/>
<path d="M13.4998 20.2505C4.41585 20.2505 -0.000152588 18.533 -0.000152588 15.0005C-0.000152588 14.5865 0.335847 14.2505 0.749847 14.2505C1.49385 14.2505 2.03685 14.0375 2.41035 13.6025C3.28635 12.578 3.01185 10.6355 3.00885 10.616C2.99985 5.12449 7.70985 0.750488 13.4998 0.750488C19.2883 0.750488 23.9998 5.12449 23.9998 10.5005C23.9998 15.8765 19.2883 20.2505 13.4998 20.2505ZM1.61385 15.6725C2.32785 17.69 6.40185 18.7505 13.4998 18.7505C18.4633 18.7505 22.4998 15.0485 22.4998 10.5005C22.4998 5.95099 18.4633 2.25049 13.4998 2.25049C8.53635 2.25049 4.49985 5.95099 4.49985 10.5005C4.50885 10.5005 4.88235 13.022 3.55035 14.5775C3.05385 15.1565 2.40585 15.524 1.61385 15.6725Z" fill="black"/>
<path d="M16.4998 23.2505C18.1567 23.2505 19.4998 21.9073 19.4998 20.2505C19.4998 18.5936 18.1567 17.2505 16.4998 17.2505C14.843 17.2505 13.4998 18.5936 13.4998 20.2505C13.4998 21.9073 14.843 23.2505 16.4998 23.2505Z" fill="black"/>
<path d="M7.49985 23.2505C9.1567 23.2505 10.4998 21.9073 10.4998 20.2505C10.4998 18.5936 9.1567 17.2505 7.49985 17.2505C5.84299 17.2505 4.49985 18.5936 4.49985 20.2505C4.49985 21.9073 5.84299 23.2505 7.49985 23.2505Z" fill="black"/>
<path d="M10.5298 9.00049C10.1158 9.00049 9.77234 8.66449 9.77234 8.25049C9.77234 7.83649 10.1008 7.50049 10.5148 7.50049H10.5298C10.9438 7.50049 11.2798 7.83649 11.2798 8.25049C11.2798 8.66449 10.9438 9.00049 10.5298 9.00049Z" fill="black"/>
<path d="M16.5298 9.00049C16.1173 9.00049 15.7723 8.66449 15.7723 8.25049C15.7723 7.83649 16.1008 7.50049 16.5148 7.50049H16.5298C16.9438 7.50049 17.2798 7.83649 17.2798 8.25049C17.2798 8.66449 16.9438 9.00049 16.5298 9.00049Z" fill="black"/>
<path d="M13.4998 15.7506C11.3368 15.7506 9.49334 14.2776 9.01784 12.1656C8.92784 11.7606 9.18134 11.3601 9.58484 11.2686C9.98984 11.1816 10.3903 11.4306 10.4818 11.8356C10.8013 13.2576 12.0433 14.2506 13.4998 14.2506C14.9578 14.2506 16.1983 13.2576 16.5178 11.8356C16.6108 11.4321 17.0068 11.1786 17.4148 11.2686C17.8198 11.3601 18.0733 11.7606 17.9833 12.1656C17.5078 14.2761 15.6643 15.7506 13.4998 15.7506Z" fill="black"/>
</g>
</g>
<defs>
<clipPath id="clip0_4880_319">
<rect width="24" height="24" fill="white"/>
</clipPath>
<clipPath id="clip1_4880_319">
<rect width="24" height="24" fill="white" transform="translate(-0.000152588 0.000488281)"/>
</clipPath>
</defs>
</svg>
